# xmcd CD database file generated by Grip 3.2.0
# 
# Track frame offsets:
#       183
#       14230
#       34055
#       49363
#       71580
#       90768
#       101745
#       113625
#       128240
#       144620
#       170053
#       187070
#       205805
#       219325
# 
# Disc length: 3181 seconds
# 
# Revision: 3
# Processed by: cddbd v1.5.1PL0 Copyright (c) Steve Scherf et al.
# Submitted via: Grip 3.2.0
# 
DISCID=d00c6b0e
DTITLE=Lillian Boutté and Christian Willisohn - Lipstick Traces
DYEAR=1991
DGENRE=Blues
TTITLE0=Lipstick Traces
TTITLE1=Why Don't You Do Right?
TTITLE2=One for the Highway
TTITLE3=Music is My Life
TTITLE4=Rough and Ready
TTITLE5=Cherry Red
TTITLE6=Tribute to Jay McShann
TTITLE7=Something's got a Hold on Me
TTITLE8=The Sounds of James Booker
TTITLE9=Dr. Feelgood
TTITLE10=Keep Your Hands Off Him
TTITLE11=Boogie Woogie Stomp
TTITLE12=Cry to Me
TTITLE13=Downhearted Blues
EXTD=YEAR: 1991
EXTT0=
EXTT1=
EXTT2=
EXTT3=
EXTT4=
EXTT5=
EXTT6=
EXTT7=
EXTT8=
EXTT9=
EXTT10=
EXTT11=
EXTT12=
EXTT13=
PLAYORDER=
